<svg id="icons" enable-background="new 0 0 64 64" height="512" viewBox="0 0 64 64" width="512" xmlns="http://www.w3.org/2000/svg"><path d="m50 58.004c0 3.3-2.7 6-6 6h-24c-3.3 0-6-2.7-6-6v-48.005c0-3.3 2.7-6 6-6h24c3.3 0 6 2.7 6 6z" fill="#545c66"/><path d="m50 54.001c0 3.3-2.7 6-6 6h-24c-3.3 0-6-2.7-6-6v-48.005c0-3.3 2.7-6 6-6h24c3.3 0 6 2.7 6 6z" fill="#656d78"/><path d="m32 53.496c1.1 0 2 .9 2 2 0 1.11-.9 2-2 2s-2-.89-2-2c0-1.1.9-2 2-2z" fill="#aab2bd"/><path d="m29.03 4.498c-.553 0-1.005-.447-1.005-1s.442-1 .994-1h.011c.552 0 1 .447 1 1s-.448 1-1 1z" fill="#5d9cec"/><path d="m35 4.498h-3c-.553 0-1-.447-1-1s.447-1 1-1h3c.553 0 1 .447 1 1s-.447 1-1 1z" fill="#545c66"/><path d="m48.007 7.002v44h-9-15.999v-44z" fill="#e6e9ed"/><path d="m41 7.002v44h-9-15.999v-44z" fill="#fff"/><path d="m21.992 12.003h-2.999c-.553 0-1-.447-1-1s.447-1 1-1h2.999c.553 0 1 .447 1 1s-.447 1-1 1z" fill="#656d78"/><path d="m21.992 15.003h-2.999c-.553 0-1-.447-1-1s.447-1 1-1h2.999c.553 0 1 .447 1 1s-.447 1-1 1z" fill="#656d78"/><g fill="#ccd1d9"><path d="m29.993 21.001h-11.001c-.553 0-1-.447-1-1s.447-1 1-1h11.001c.553 0 1 .447 1 1s-.447 1-1 1z"/><path d="m23.987 25.002h-4.995c-.553 0-1-.447-1-1s.447-1 1-1h4.995c.553 0 1 .447 1 1s-.447 1-1 1z"/><path d="m34.998 29.003h-16.006c-.553 0-1-.447-1-1s.447-1 1-1h16.006c.553 0 1 .447 1 1s-.447 1-1 1z"/><path d="m24.988 33.004h-5.996c-.553 0-1-.447-1-1s.447-1 1-1h5.996c.553 0 1 .447 1 1s-.447 1-1 1z"/><path d="m32.996 37.005h-14.004c-.553 0-1-.447-1-1s.447-1 1-1h14.004c.553 0 1 .447 1 1s-.447 1-1 1z"/><path d="m27.991 41.006h-8.999c-.553 0-1-.447-1-1s.447-1 1-1h8.999c.553 0 1 .447 1 1s-.447 1-1 1z"/></g><path d="m19.022 48.001c-.553 0-1.005-.447-1.005-1s.442-1 .994-1h.011c.552 0 1 .447 1 1s-.448 1-1 1z" fill="#5d9cec"/><path d="m22.022 48.001c-.553 0-1.005-.447-1.005-1s.442-1 .994-1h.011c.552 0 1 .447 1 1s-.448 1-1 1z" fill="#5d9cec"/><path d="m25.022 48.001c-.553 0-1.005-.447-1.005-1s.442-1 .994-1h.011c.552 0 1 .447 1 1s-.448 1-1 1z" fill="#5d9cec"/><path d="m44.999 35.004c-.55 0-1 .45-1 1v12c0 .55.45 1 1 1h3.001v-14z" fill="#5d9cec"/><path d="m44.999 9.004c-.55 0-1 .45-1 1v12c0 .55.45 1 1 1h3.001v-14z" fill="#5d9cec"/><path d="m48.007 25.002h-3.007c-.553 0-1 .447-1 1s.447 1 1 1h3.007z" fill="#ccd1d9"/><path d="m48.007 28.002h-3.007c-.553 0-1 .447-1 1s.447 1 1 1h3.007z" fill="#ccd1d9"/><path d="m48.007 31.002h-3.007c-.553 0-1 .447-1 1s.447 1 1 1h3.007z" fill="#ccd1d9"/></svg>