<svg id="icons" enable-background="new 0 0 64 64" height="512" viewBox="0 0 64 64" width="512" xmlns="http://www.w3.org/2000/svg"><path d="m29.03 5c.552 0 1-.447 1-1s-.448-1-1-1h-.01c-.552 0-.994.447-.994 1s.452 1 1.004 1z"/><path d="m32 5h3c.553 0 1-.447 1-1s-.447-1-1-1h-3c-.553 0-1 .447-1 1s.447 1 1 1z"/><path d="m44.013.003c-.004 0-.008-.003-.013-.003h-24c-3.309 0-6 2.691-6 6v51c0 3.859 3.141 7 7 7h22c3.859 0 7-3.141 7-7v-50.998c0-3.305-2.685-5.992-5.987-5.999zm-24.013 1.997h23.99c.004 0 .006.002.01.002 2.206 0 4 1.794 4 4h-6.99c-.004 0-.006-.002-.01-.002s-.006.002-.01.002h-24.99v-.002c0-2.206 1.794-4 4-4zm23 56h-11-11c-2.757 0-5-2.243-5-5v-1h16 16v1c0 2.757-2.243 5-5 5zm1-49.998v12.998c0 .553.447 1 1 1h3v1h-3c-.553 0-1 .447-1 1s.447 1 1 1h3v1h-3c-.553 0-1 .447-1 1s.447 1 1 1h3v1h-3c-.553 0-1 .447-1 1s.447 1 1 1h3v1.001h-3c-.553 0-1 .447-1 1v13.998c0 .553.447 1 1 1h3v2.001h-6v-41.998zm4 0v11.998h-2v-11.998zm-2 25.999h2v11.998h-2zm-6 15.999h-24v-41.998h24zm3 12h-22c-2.418 0-4.438-1.726-4.9-4.01 1.264 1.241 2.994 2.01 4.9 2.01h22c1.906 0 3.636-.769 4.9-2.01-.462 2.284-2.482 4.01-4.9 4.01z"/><path d="m35 55c0-1.654-1.346-3-3-3s-3 1.346-3 3 1.346 3 3 3 3-1.346 3-3zm-3 1c-.552 0-1-.448-1-1s.448-1 1-1 1 .448 1 1-.448 1-1 1z"/><path d="m18.993 12.003h2.999c.553 0 1-.447 1-1s-.447-1-1-1h-2.999c-.553 0-1 .447-1 1s.447 1 1 1z"/><path d="m18.993 15.003h2.999c.553 0 1-.447 1-1s-.447-1-1-1h-2.999c-.553 0-1 .447-1 1s.447 1 1 1z"/><path d="m18.992 21.001h11.001c.553 0 1-.447 1-1s-.447-1-1-1h-11.001c-.553 0-1 .447-1 1s.447 1 1 1z"/><path d="m18.992 25.002h4.995c.553 0 1-.447 1-1s-.447-1-1-1h-4.995c-.553 0-1 .447-1 1s.447 1 1 1z"/><path d="m18.992 29.003h16.006c.553 0 1-.447 1-1s-.447-1-1-1h-16.006c-.553 0-1 .447-1 1s.447 1 1 1z"/><path d="m18.992 33.004h5.996c.553 0 1-.447 1-1s-.447-1-1-1h-5.996c-.553 0-1 .447-1 1s.447 1 1 1z"/><path d="m18.992 37.005h14.004c.553 0 1-.447 1-1s-.447-1-1-1h-14.004c-.553 0-1 .447-1 1s.447 1 1 1z"/><path d="m27.991 39.006h-8.999c-.553 0-1 .447-1 1s.447 1 1 1h8.999c.553 0 1-.447 1-1s-.447-1-1-1z"/><path d="m19.022 46.001h-.011c-.552 0-.994.447-.994 1s.452 1 1.005 1c.552 0 1-.447 1-1s-.448-1-1-1z"/><path d="m22.022 46.001h-.011c-.552 0-.994.447-.994 1s.452 1 1.005 1c.552 0 1-.447 1-1s-.448-1-1-1z"/><path d="m25.022 46.001h-.011c-.552 0-.994.447-.994 1s.452 1 1.005 1c.552 0 1-.447 1-1s-.448-1-1-1z"/></svg>