<svg id="icons" enable-background="new 0 0 64 64" height="512" viewBox="0 0 64 64" width="512" xmlns="http://www.w3.org/2000/svg"><path d="m50 58.004c0 3.3-2.7 6-6 6h-24c-3.3 0-6-2.7-6-6v-48.005c0-3.3 2.7-6 6-6h24c3.3 0 6 2.7 6 6z" fill="#545c66"/><path d="m50 54.001c0 3.3-2.7 6-6 6h-24c-3.3 0-6-2.7-6-6v-48.005c0-3.3 2.7-6 6-6h24c3.3 0 6 2.7 6 6z" fill="#656d78"/><path d="m32 53.496c1.1 0 2 .9 2 2 0 1.11-.9 2-2 2s-2-.89-2-2c0-1.1.9-2 2-2z" fill="#aab2bd"/><path d="m29.03 4.498c-.553 0-1.005-.448-1.005-1s.442-1 .994-1h.011c.552 0 1 .448 1 1s-.448 1-1 1z" fill="#5d9cec"/><path d="m35 4.498h-3c-.553 0-1-.448-1-1s.447-1 1-1h3c.553 0 1 .448 1 1s-.447 1-1 1z" fill="#545c66"/><path d="m16.001 6.998h31.998v44h-31.998z" fill="#e6e9ed"/><path d="m46.019 17.998c0 .55-.45 1-1 1h-26.019c-.55 0-1-.45-1-1v-7c0-.55.45-1 1-1h26.019c.55 0 1 .45 1 1z" fill="#fff"/><path d="m27 17.998c0 .55-.45 1-1 1h-7c-.55 0-1-.45-1-1v-7c0-.55.45-1 1-1h7c.55 0 1 .45 1 1z" fill="#5d9cec"/><path d="m22.5 17c-.553 0-1-.448-1-1v-1c0-.552.447-1 1-1s1 .448 1 1v1c0 .552-.447 1-1 1z" fill="#4a89dc"/><path d="m22.529 14c-.553 0-1.005-.448-1.005-1s.442-1 .994-1h.011c.552 0 1 .448 1 1s-.448 1-1 1z" fill="#4a89dc"/><path d="m43.001 14h-13c-.553 0-1-.448-1-1s.447-1 1-1h13c.553 0 1 .448 1 1s-.447 1-1 1z" fill="#e6e9ed"/><path d="m36 17h-5.999c-.553 0-1-.448-1-1s.447-1 1-1h5.999c.553 0 1 .448 1 1s-.447 1-1 1z" fill="#e6e9ed"/><path d="m46.019 27.999c0 .55-.45 1-1 1h-26.019c-.55 0-1-.45-1-1v-7c0-.55.45-1 1-1h26.019c.55 0 1 .45 1 1z" fill="#fff"/><path d="m27 27.999c0 .55-.45 1-1 1h-7c-.55 0-1-.45-1-1v-7c0-.55.45-1 1-1h7c.55 0 1 .45 1 1z" fill="#5d9cec"/><path d="m22.5 27c-.553 0-1-.448-1-1v-1c0-.552.447-1 1-1s1 .448 1 1v1c0 .553-.447 1-1 1z" fill="#4a89dc"/><path d="m22.529 24c-.553 0-1.005-.448-1.005-1s.442-1 .994-1h.011c.552 0 1 .448 1 1s-.448 1-1 1z" fill="#4a89dc"/><path d="m43.001 24h-13c-.553 0-1-.448-1-1s.447-1 1-1h13c.553 0 1 .448 1 1s-.447 1-1 1z" fill="#e6e9ed"/><path d="m36 27h-5.999c-.553 0-1-.448-1-1s.447-1 1-1h5.999c.553 0 1 .448 1 1s-.447 1-1 1z" fill="#e6e9ed"/><path d="m46.019 44.997v-5.998c0-.55-.45-1-1-1h-26.019c-.55 0-1 .45-1 1v5.998z" fill="#f5f7fa"/><path d="m27 44.997v-5.998c0-.55-.45-1-1-1h-7c-.55 0-1 .45-1 1v5.998z" fill="#4a89dc"/><path d="m46.019 46.999v-5.998c0-.55-.45-1-1-1h-26.019c-.55 0-1 .45-1 1v5.998z" fill="#fff"/><path d="m27 46.999v-5.998c0-.55-.45-1-1-1h-7c-.55 0-1 .45-1 1v5.998z" fill="#5d9cec"/><path d="m46.019 49v-5.998c0-.55-.45-1-1-1h-26.019c-.55 0-1 .45-1 1v5.998z" fill="#f5f7fa"/><path d="m27 49v-5.998c0-.55-.45-1-1-1h-7c-.55 0-1 .45-1 1v5.998z" fill="#4a89dc"/><path d="m46.019 50.998v-5.998c0-.55-.45-1-1-1h-26.019c-.55 0-1 .45-1 1v5.998z" fill="#fff"/><path d="m27 50.998v-5.998c0-.55-.45-1-1-1h-7c-.55 0-1 .45-1 1v5.998z" fill="#5d9cec"/><path d="m22.5 51.002c-.553 0-1-.447-1-1v-1c0-.553.447-1 1-1s1 .447 1 1v1c0 .553-.447 1-1 1z" fill="#4a89dc"/><path d="m22.529 48.002c-.553 0-1.005-.447-1.005-1s.442-1 .994-1h.011c.552 0 1 .447 1 1s-.448 1-1 1z" fill="#4a89dc"/><g fill="#e6e9ed"><path d="m43.001 48.002h-13c-.553 0-1-.447-1-1s.447-1 1-1h13c.553 0 1 .447 1 1s-.447 1-1 1z"/><path d="m36 51.002h-5.999c-.553 0-1-.447-1-1s.447-1 1-1h5.999c.553 0 1 .447 1 1s-.447 1-1 1z"/></g></svg>