<svg id="icons" enable-background="new 0 0 64 64" height="512" viewBox="0 0 64 64" width="512" xmlns="http://www.w3.org/2000/svg"><path d="m29.03 5c.552 0 1-.447 1-1s-.448-1-1-1h-.01c-.552 0-.994.447-.994 1s.452 1 1.004 1z"/><path d="m32 5h3c.553 0 1-.447 1-1s-.447-1-1-1h-3c-.553 0-1 .447-1 1s.447 1 1 1z"/><path d="m44.013.003c-.005 0-.008-.003-.013-.003h-24c-3.309 0-6 2.691-6 6v51c0 3.859 3.141 7 7 7h22c3.859 0 7-3.141 7-7v-50.998c0-3.305-2.685-5.992-5.987-5.999zm-24.013 1.997h23.99c.004 0 .006.002.01.002 2.206 0 4 1.794 4 4h-32v-.002c0-2.206 1.794-4 4-4zm23 56h-11-11c-2.757 0-5-2.243-5-5v-1h16 16v1c0 2.757-2.243 5-5 5zm-27-49.998h32v41.998h-32zm27 53.998h-22c-2.418 0-4.439-1.726-4.9-4.01 1.264 1.241 2.994 2.01 4.9 2.01h22c1.906 0 3.636-.769 4.9-2.01-.461 2.284-2.482 4.01-4.9 4.01z"/><path d="m35 55c0-1.654-1.346-3-3-3s-3 1.346-3 3 1.346 3 3 3 3-1.346 3-3zm-3 1c-.552 0-1-.448-1-1s.448-1 1-1 1 .448 1 1-.448 1-1 1z"/><path d="m43.998 38.979v-25.978c0-.553-.447-1-1-1h-21.996c-.553 0-1 .447-1 1v25.992 6.006c0 .553.447 1 1 1h21.999c.553 0 1-.447 1-1v-6.006c0-.005-.003-.01-.003-.014zm-1.997 2.02h-19.999v-1.006h19.999zm-19.999 2h19.999v1h-19.999zm0-28.998h19.996v23.992h-19.996z"/><path d="m26.5 15.228c-.899-.417-2.056-.229-2.779.496-.959.96-.959 2.523.001 3.484l2.071 2.07c.195.195.451.293.707.293s.512-.098.707-.293l2.072-2.071c.959-.96.959-2.523-.001-3.484-.724-.725-1.88-.912-2.778-.495zm1.364 2.566-1.364 1.363-1.363-1.362c-.182-.182-.182-.478 0-.659.117-.117.256-.135.327-.135.072 0 .21.018.329.136.391.391 1.023.391 1.414 0 .119-.118.257-.136.329-.136.071 0 .209.018.327.135.182.181.182.477.001.658z"/><path d="m37.5 30.658c-.898-.416-2.056-.229-2.779.496-.959.96-.959 2.523.001 3.484l2.071 2.07c.195.195.451.293.707.293s.512-.098.707-.293l2.072-2.071c.959-.96.959-2.523-.001-3.484-.724-.724-1.881-.912-2.778-.495zm1.364 2.567-1.364 1.363-1.363-1.362c-.182-.182-.182-.478 0-.659.117-.117.256-.136.327-.136.072 0 .21.019.329.137.391.391 1.023.391 1.414 0 .119-.118.257-.137.329-.137.071 0 .209.019.327.136.182.181.182.477.001.658z"/></svg>