<svg id="icons" enable-background="new 0 0 64 64" height="512" viewBox="0 0 64 64" width="512" xmlns="http://www.w3.org/2000/svg"><path d="m15 7v44h17 17v-44z" fill="#ccd1d9"/><path d="m40.996 17.006h-17.992c-.553 0-1 .447-1 1v25.992c0 .553.447 1 1 1h17.992c.553 0 1-.447 1-1v-25.992c0-.553-.447-1-1-1z" fill="#e6e9ed"/><path d="m40.996 16.005h-17.992c-.553 0-1 .447-1 1v25.992c0 .553.447 1 1 1h17.992c.553 0 1-.447 1-1v-25.992c0-.553-.447-1-1-1z" fill="#f5f7fa"/><path d="m40.996 15.004h-17.992c-.553 0-1 .447-1 1v25.992c0 .553.447 1 1 1h17.992c.553 0 1-.447 1-1v-25.992c0-.553-.447-1-1-1z" fill="#e6e9ed"/><path d="m40.996 14.003h-17.992c-.553 0-1 .447-1 1v25.992c0 .553.447 1 1 1h17.992c.553 0 1-.447 1-1v-25.992c0-.553-.447-1-1-1z" fill="#f5f7fa"/><path d="m40.996 13.002h-17.992c-.553 0-1 .447-1 1v25.992c0 .553.447 1 1 1h17.992c.553 0 1-.447 1-1v-25.992c0-.553-.447-1-1-1z" fill="#e6e9ed"/><path d="m40.996 12.001h-17.992c-.553 0-1 .447-1 1v25.992c0 .553.447 1 1 1h17.992c.553 0 1-.447 1-1v-25.992c0-.553-.447-1-1-1z" fill="#f5f7fa"/><path d="m44 1h-24c-2.76 0-5 2.24-5 5v1h34v-1c0-2.76-2.24-5-5-5z" fill="#656d78"/><path d="m32 51h-17v2c0 3.3 2.7 6 6 6h11 11c3.3 0 6-2.7 6-6v-2z" fill="#656d78"/><path d="m32 53c1.1 0 2 .9 2 2 0 1.11-.9 2-2 2s-2-.89-2-2c0-1.1.9-2 2-2z" fill="#aab2bd"/><path d="m49 53v4c0 3.3-2.7 6-6 6h-22c-3.3 0-6-2.7-6-6v-4c0 3.3 2.7 6 6 6h11 11c3.3 0 6-2.7 6-6z" fill="#545c66"/><path d="m28.57 14.428c.569.57.569 1.5 0 2.07l-2.07 2.07-2.07-2.07c-.569-.57-.569-1.5 0-2.07.57-.569 1.5-.569 2.07 0 .57-.57 1.5-.57 2.07 0z" fill="#ed5565"/><path d="m39.57 33.862c.569.569.569 1.5 0 2.069l-2.07 2.07-2.07-2.07c-.569-.569-.569-1.5 0-2.069.57-.57 1.5-.57 2.07 0 .57-.57 1.5-.57 2.07 0z" fill="#ed5565"/><path d="m29.03 5c-.553 0-1.005-.447-1.005-1s.442-1 .994-1h.011c.552 0 1 .447 1 1s-.448 1-1 1z" fill="#5d9cec"/><path d="m35 5h-3c-.553 0-1-.447-1-1s.447-1 1-1h3c.553 0 1 .447 1 1s-.447 1-1 1z" fill="#545c66"/><g fill="#656d78"><path d="m15 7h2.001v44h-2.001z"/><path d="m46.999 7h2.001v44h-2.001z"/></g></svg>