<?xml version="1.0" encoding="iso-8859-1"?>
<!-- Generator: Adobe Illustrator 19.0.0, SVG Export Plug-In . SVG Version: 6.00 Build 0)  -->
<svg version="1.1" id="Layer_1" xmlns="http://www.w3.org/2000/svg" xmlns:xlink="http://www.w3.org/1999/xlink" x="0px" y="0px"
	 viewBox="0 0 512.001 512.001" style="enable-background:new 0 0 512.001 512.001;" xml:space="preserve">
<g>
	<g>
		<path d="M474.078,167.619c-3.126-14.678-10.436-28.137-21.049-38.748l-54.568-54.569c-5.159-5.159-13.523-5.159-18.682,0
			l-8.131,8.131l-16.987-16.987l8.131-8.131c5.159-5.159,5.159-13.523,0-18.682L328.029,3.869c-5.159-5.159-13.523-5.159-18.682,0
			l-55.319,55.319c-5.159,5.159-5.159,13.523,0,18.682l34.763,34.763c5.159,5.159,13.523,5.159,18.682,0l8.131-8.131l16.987,16.987
			l-8.14,8.14c-5.156,5.156-5.159,13.513-0.009,18.673l6.652,6.664L45.219,440.842c-16.278,16.278-16.278,42.672,0,58.95
			c16.278,16.278,42.672,16.278,58.95,0l285.82-285.82l14.256,14.281c22.529,22.57,35.286,53.09,35.522,84.978
			c0.026,3.522,2.453,6.571,5.879,7.386c3.426,0.816,6.966-0.813,8.576-3.945C477.814,270.758,484.829,218.106,474.078,167.619z"/>
	</g>
</g>
<g>
</g>
<g>
</g>
<g>
</g>
<g>
</g>
<g>
</g>
<g>
</g>
<g>
</g>
<g>
</g>
<g>
</g>
<g>
</g>
<g>
</g>
<g>
</g>
<g>
</g>
<g>
</g>
<g>
</g>
</svg>
